# Blender 4.2.1 LTS
# www.blender.org
mtllib tile_3.mtl
o Cube
v -0.710370 1.058383 -0.590678
v -0.803596 1.058415 -0.629044
v -0.886054 1.058383 -0.571086
v -0.792853 1.058415 -0.532703
v -0.756983 1.017196 -0.609861
v -0.798222 1.017196 -0.580876
v -0.844825 1.017196 -0.600065
v -0.839454 1.017196 -0.551895
v -0.751611 1.017196 -0.561691
v 0.262571 1.058506 -0.190405
v 0.183962 1.058506 -0.222745
v 0.150825 1.058506 -0.144469
v 0.229434 1.058506 -0.112129
v 0.223267 1.017196 -0.206575
v 0.206700 1.017196 -0.167436
v 0.167394 1.017196 -0.183607
v 0.190130 1.017196 -0.128299
v 0.246003 1.017196 -0.151267
v 1.000000 0.988007 -0.952409
v 0.952409 0.989787 -1.000000
v 0.954880 1.038286 -0.954728
v 0.952409 -1.000000 -0.952409
v 0.952409 -0.952409 -1.000000
v 1.000000 -0.952409 -0.952409
v 0.952409 0.994862 1.000000
v 1.000000 0.993917 0.952409
v 0.957491 1.043874 0.954126
v 1.000000 -0.952409 0.952409
v 0.952409 -0.952409 1.000000
v 0.952409 -1.000000 0.952409
v -0.952409 0.996712 -1.000000
v -1.000000 0.998179 -0.952409
v -0.953843 1.046511 -0.957221
v -1.000000 -0.952409 -0.952409
v -0.952409 -0.952409 -1.000000
v -0.952409 -1.000000 -0.952409
v -1.000000 0.965786 0.952409
v -0.952409 0.967431 1.000000
v -0.954366 1.016553 0.953792
v -0.952409 -1.000000 0.952409
v -0.952409 -0.952409 1.000000
v -1.000000 -0.952409 0.952409
v -1.000000 1.010206 -0.371240
v -0.954340 1.058369 -0.419197
v -1.000000 1.010778 -0.507582
v -0.954263 1.058367 -0.523144
v -1.000000 0.956476 -0.439050
v -0.954381 1.017196 -0.471115
v -0.287621 1.010062 -1.000000
v -0.336476 1.057959 -0.957373
v -0.115762 1.010319 -1.000000
v -0.190992 1.057952 -0.955738
v -0.201925 0.962865 -1.000000
v -0.263676 1.017516 -0.956965
v 1.000000 1.010471 0.095185
v 0.954895 1.058458 0.094421
v 1.000000 1.010775 0.223017
v 0.955402 1.058458 0.186539
v 1.000000 0.953239 0.158932
v 0.955109 1.017196 0.140463
v -1.000000 1.010849 -0.599816
v -0.954099 1.058426 -0.599118
v -1.000000 1.009906 -0.727114
v -0.953901 1.058445 -0.690963
v -1.000000 0.953244 -0.663990
v -0.954002 1.017196 -0.645041
v 0.494693 1.010845 -1.000000
v 0.493928 1.058455 -0.955289
v 0.622071 1.009750 -1.000000
v 0.586025 1.058455 -0.954824
v 0.558994 0.953359 -1.000000
v 0.539962 1.017196 -0.955023
v -0.223418 1.010859 1.000000
v -0.222101 1.058454 0.953994
v -0.350621 1.009572 1.000000
v -0.314342 1.058454 0.953840
v -0.287739 0.953363 1.000000
v -0.268226 1.017196 0.953928
v 1.000000 1.010266 0.327490
v 0.955893 1.057860 0.407022
v 1.000000 1.009793 0.505930
v 0.957691 1.057875 0.560075
v 1.000000 0.963529 0.417164
v 0.956679 1.017555 0.483098
v 0.687064 1.009825 1.000000
v 0.701171 1.058325 0.954193
v 0.553049 1.010788 1.000000
v 0.599803 1.058338 0.954121
v 0.620649 0.955887 1.000000
v 0.650443 1.017196 0.954225
vn 0.2653 0.7179 -0.6436
vn -1.0000 -0.0000 -0.0000
vn 0.3993 0.7200 0.5676
vn -0.0000 -0.0000 1.0000
vn 1.0000 -0.0000 -0.0000
vn -0.0000 -1.0000 -0.0000
vn -0.0241 0.9996 0.0112
vn 0.0563 0.9978 0.0355
vn -0.2651 0.7173 0.6444
vn -0.0124 0.9995 -0.0306
vn 0.0210 0.9998 -0.0074
vn -0.4197 0.9064 0.0468
vn 0.0718 0.7618 0.6438
vn 0.4198 0.9064 -0.0468
vn -0.0718 0.7618 -0.6438
vn -0.5221 0.8254 0.2146
vn 0.2161 0.8228 0.5257
vn 0.5221 0.8255 -0.2146
vn -0.2161 0.8228 -0.5257
vn -0.0003 1.0000 -0.0006
vn -0.3976 0.7226 -0.5655
vn 0.4001 0.7182 0.5693
vn 0.0003 1.0000 0.0008
vn 0.0003 1.0000 0.0003
vn 0.2651 0.7173 -0.6444
vn -0.2652 0.7177 0.6439
vn 0.6417 0.7173 0.2715
vn 0.2650 0.7174 -0.6442
vn -0.2650 0.7176 0.6441
vn 0.6416 0.7173 0.2718
vn 0.5813 0.7206 0.3780
vn -0.6416 0.7173 -0.2717
vn -0.6417 0.7173 -0.2715
vn -0.5788 0.7234 -0.3765
vn -0.4003 0.7180 -0.5694
vn 0.6126 0.5224 -0.5931
vn 0.5774 -0.5774 -0.5774
vn 0.6160 0.5033 0.6060
vn 0.5774 -0.5774 0.5774
vn -0.5997 0.5114 -0.6155
vn -0.5774 -0.5774 -0.5774
vn -0.6084 0.5308 0.5900
vn -0.5774 -0.5774 0.5774
vn -0.7071 -0.7071 -0.0000
vn -0.0000 -0.7071 -0.7071
vn 0.7071 -0.0000 -0.7071
vn -0.7071 -0.0000 0.7071
vn 0.7071 -0.0000 0.7071
vn -0.7071 -0.0000 -0.7071
vn -0.0000 -0.7071 0.7071
vn 0.7071 -0.7071 -0.0000
vn -0.2325 0.4323 -0.8713
vn 0.4467 0.8061 -0.3882
vn -0.8285 0.4390 -0.3477
vn -0.5185 0.6706 0.5305
vn 0.8009 0.4447 -0.4009
vn 0.6171 0.5863 0.5248
vn -0.6050 0.5923 -0.5322
vn -0.7946 0.4521 0.4052
vn -0.5332 0.5959 0.6005
vn 0.4032 0.4517 0.7959
vn -0.3983 0.4468 -0.8011
vn 0.5273 0.5876 -0.6137
vn -0.5333 0.6573 0.5325
vn 0.3743 0.8210 -0.4312
vn 0.3577 0.4413 0.8230
vn 0.8736 0.4325 0.2230
vn -0.0470 0.6938 0.7187
vn -0.7296 0.6835 0.0219
vn -0.7203 0.6936 -0.0002
vn -0.7183 0.6949 -0.0335
vn -0.0127 0.6544 -0.7561
vn -0.0003 0.6825 -0.7309
vn 0.0396 0.6880 -0.7247
vn 0.7367 0.6760 -0.0138
vn 0.7322 0.6811 0.0012
vn 0.7625 0.6465 0.0232
vn -0.0000 0.6947 0.7193
vn 0.0385 0.6805 0.7318
vn -0.0000 -0.0000 -1.0000
vt 0.869262 0.550110
vt 0.860757 0.553614
vt 0.855603 0.549992
vt 0.869250 0.544370
vt 0.380891 0.005949
vt 0.619133 0.005949
vt 0.620080 0.171405
vt 0.614497 0.179881
vt 0.620088 0.188448
vt 0.620095 0.199977
vt 0.613947 0.207999
vt 0.620114 0.215889
vt 0.619293 0.244051
vt 0.380832 0.244051
vt 0.844623 0.548767
vt 0.782960 0.505378
vt 0.792059 0.505328
vt 0.850450 0.546369
vt 0.380834 0.755949
vt 0.619284 0.755949
vt 0.620135 0.789117
vt 0.614381 0.797419
vt 0.620058 0.805869
vt 0.620076 0.902927
vt 0.614064 0.910967
vt 0.620165 0.918828
vt 0.619197 0.994051
vt 0.380886 0.994051
vt 0.380839 0.505949
vt 0.619189 0.505949
vt 0.620038 0.636898
vt 0.613881 0.644866
vt 0.620060 0.652877
vt 0.620011 0.665936
vt 0.615979 0.677145
vt 0.620044 0.688241
vt 0.619235 0.744051
vt 0.380829 0.744051
vt 0.130949 0.505949
vt 0.369051 0.505949
vt 0.369051 0.744051
vt 0.130949 0.744051
vt 0.789293 0.744230
vt 0.731147 0.606941
vt 0.849107 0.558412
vt 0.869292 0.572600
vt 0.869294 0.744223
vt 0.630289 0.695009
vt 0.662354 0.744274
vt 0.630314 0.744266
vt 0.719250 0.606092
vt 0.630611 0.642558
vt 0.630638 0.636803
vt 0.717179 0.601199
vt 0.869238 0.538630
vt 0.869230 0.505348
vt 0.630641 0.505660
vt 0.676747 0.505647
vt 0.630638 0.636803
vt 0.838796 0.551165
vt 0.849778 0.552391
vt 0.843951 0.554789
vt 0.854932 0.556013
vt 0.854932 0.556013
vt 0.722092 0.599178
vt 0.724162 0.604071
vt 0.719250 0.606092
vt 0.727005 0.597157
vt 0.729076 0.602049
vt 0.722092 0.599178
vt 0.726234 0.608963
vt 0.729076 0.602049
vt 0.721321 0.610984
vt 0.688259 0.505589
vt 0.773874 0.505533
vt 0.782937 0.505411
vt 0.869298 0.566111
vt 0.869283 0.559607
vt 0.869283 0.559607
vt 0.630575 0.648317
vt 0.777763 0.744249
vt 0.675025 0.744265
vt 0.630513 0.675878
vt 0.630575 0.648317
vt 0.630611 0.642558
vt 0.682505 0.505622
vt 0.783528 0.744241
vt 0.668695 0.744278
vt 0.630417 0.685386
vt 0.675025 0.744265
vt 0.777763 0.744249
vt 0.783528 0.744241
vt 0.676747 0.505647
vt 0.662354 0.744274
vt 0.630289 0.695009
vt 0.630379 0.685411
vt 0.668695 0.744278
vt 0.619276 0.500000
vt 0.619259 0.494051
vt 0.625000 0.494353
vt 0.369051 0.500000
vt 0.375000 0.505949
vt 0.619371 0.750000
vt 0.625000 0.755325
vt 0.375000 0.744051
vt 0.369051 0.750000
vt 0.619217 0.255949
vt 0.619473 0.250000
vt 0.625000 0.255775
vt 0.125000 0.505949
vt 0.130949 0.500000
vt 0.619281 1.000000
vt 0.625000 0.994282
vt 0.130949 0.750000
vt 0.125000 0.744051
vt 0.380836 0.494051
vt 0.380914 1.000000
vt 0.380821 0.255949
vt 0.619972 0.360530
vt 0.615751 0.349759
vt 0.625000 0.349759
vt 0.625000 0.352961
vt 0.620003 0.339047
vt 0.625000 0.340521
vt 0.625000 0.343820
vt 0.625000 0.175852
vt 0.625000 0.179881
vt 0.625000 0.182343
vt 0.625000 0.186375
vt 0.625000 0.202253
vt 0.625000 0.206687
vt 0.625000 0.207999
vt 0.625000 0.212429
vt 0.625000 0.905198
vt 0.625000 0.909612
vt 0.625000 0.910967
vt 0.625000 0.915378
vt 0.620125 0.452759
vt 0.613950 0.444874
vt 0.625000 0.444874
vt 0.625000 0.449315
vt 0.620045 0.436837
vt 0.625000 0.439106
vt 0.625000 0.443552
vt 0.625000 0.791080
vt 0.625000 0.795175
vt 0.625000 0.797419
vt 0.625000 0.801506
vt 0.625000 0.916736
vt 0.625000 0.005789
vt 0.625000 0.173388
vt 0.625000 0.190393
vt 0.625000 0.199890
vt 0.625000 0.213744
vt 0.625000 0.244647
vt 0.625000 0.332944
vt 0.625000 0.358998
vt 0.625000 0.436741
vt 0.625000 0.450643
vt 0.625000 0.803757
vt 0.625000 0.902763
vt 0.625000 0.787365
s 0
usemtl Material
f 62/1/1 3/2/1 7/3/1 66/4/1
f 42/5/2 37/6/2 43/7/2 47/8/2 45/9/2 61/10/2 65/11/2 63/12/2 32/13/2 34/14/2
f 5/15/3 54/16/3 50/17/3 2/18/3
f 29/19/4 25/20/4 85/21/4 89/22/4 87/23/4 73/24/4 77/25/4 75/26/4 38/27/4 41/28/4
f 24/29/5 19/30/5 55/31/5 59/32/5 57/33/5 79/34/5 83/35/5 81/36/5 26/37/5 28/38/5
f 36/39/6 22/40/6 30/41/6 40/42/6
f 76/43/7 12/44/7 4/45/7 44/46/7 39/47/7
f 82/48/8 86/49/8 27/50/8
f 18/51/9 60/52/9 56/53/9 10/54/9
f 64/55/10 2/18/10 50/17/10 33/56/10
f 21/57/11 70/58/11 10/54/11 56/59/11
f 1/60/12 5/15/12 6/61/12 9/62/12
f 2/18/13 7/3/13 6/61/13 5/15/13
f 3/2/14 8/63/14 6/61/14 7/3/14
f 4/45/15 9/62/15 6/61/15 8/64/15
f 10/54/16 14/65/16 15/66/16 18/67/16
f 11/68/17 16/69/17 15/66/17 14/70/17
f 12/44/18 17/71/18 15/66/18 16/72/18
f 13/73/19 18/51/19 15/66/19 17/71/19
f 11/68/20 68/74/20 52/75/20 1/60/20
f 1/60/21 52/75/21 54/76/21 5/15/21
f 48/77/22 8/64/22 3/2/22 46/78/22
f 46/79/23 3/2/23 62/1/23
f 58/80/24 13/73/24 74/81/24 88/82/24 80/83/24
f 13/73/25 58/84/25 60/85/25 18/51/25
f 66/4/26 7/3/26 2/18/26 64/55/26
f 14/65/27 72/86/27 68/74/27 11/68/27
f 4/45/28 12/44/28 16/72/28 9/62/28
f 9/62/29 16/72/29 11/68/29 1/60/29
f 78/87/30 17/71/30 12/44/30 76/43/30
f 90/88/31 84/89/31 80/83/31 88/90/31
f 74/91/32 13/73/32 17/71/32 78/92/32
f 10/54/33 70/93/33 72/86/33 14/65/33
f 86/94/34 82/95/34 84/96/34 90/97/34
f 44/46/35 4/45/35 8/64/35 48/77/35
f 19/98/36 20/99/36 21/100/36
f 22/40/37 23/101/37 24/102/37
f 25/20/38 26/103/38 27/104/38
f 28/105/39 29/106/39 30/41/39
f 31/107/40 32/108/40 33/109/40
f 34/110/41 35/111/41 36/39/41
f 37/112/42 38/27/42 39/113/42
f 40/42/43 41/114/43 42/115/43
f 36/39/44 40/42/44 42/115/44 34/110/44
f 22/40/45 36/39/45 35/111/45 23/101/45
f 19/30/46 24/29/46 23/116/46 20/99/46
f 41/28/47 38/27/47 37/112/47 42/117/47
f 25/20/48 29/19/48 28/38/48 26/37/48
f 31/107/49 35/118/49 34/14/49 32/13/49
f 40/42/50 30/41/50 29/106/50 41/114/50
f 30/41/51 22/40/51 24/29/51 28/38/51
f 51/119/52 53/120/52 54/121/52 52/122/52
f 53/120/53 49/123/53 50/124/53 54/125/53
f 47/8/54 43/7/54 44/126/54 48/127/54
f 45/9/55 47/8/55 48/128/55 46/129/55
f 57/33/56 59/32/56 60/85/56 58/84/56
f 59/32/57 55/31/57 56/53/57 60/52/57
f 65/11/58 61/10/58 62/130/58 66/131/58
f 63/12/59 65/11/59 66/132/59 64/133/59
f 77/25/60 73/24/60 74/134/60 78/135/60
f 75/26/61 77/25/61 78/136/61 76/137/61
f 69/138/62 71/139/62 72/140/62 70/141/62
f 71/139/63 67/142/63 68/143/63 72/144/63
f 89/22/64 85/21/64 86/145/64 90/146/64
f 81/36/65 83/35/65 84/96/65 82/95/65
f 87/23/66 89/22/66 90/147/66 88/148/66
f 83/35/67 79/34/67 80/83/67 84/89/67
f 38/27/68 75/26/68 76/149/68 39/113/68
f 43/7/69 37/6/69 39/150/69 44/151/69
f 46/152/70 62/153/70 61/10/70 45/9/70
f 64/154/71 33/155/71 32/13/71 63/12/71
f 49/123/72 31/107/72 33/109/72 50/156/72
f 67/142/73 51/119/73 52/157/73 68/158/73
f 70/159/74 21/100/74 20/99/74 69/138/74
f 21/57/75 56/59/75 55/31/75 19/30/75
f 58/80/76 80/83/76 79/34/76 57/33/76
f 82/48/77 27/50/77 26/37/77 81/36/77
f 73/24/78 87/23/78 88/160/78 74/161/78
f 27/104/79 86/162/79 85/21/79 25/20/79
f 35/118/80 31/107/80 49/123/80 53/120/80 51/119/80 67/142/80 71/139/80 69/138/80 20/99/80 23/116/80
